<mxfile host="app.diagrams.net" modified="2022-12-08T15:49:05.306Z" agent="5.0 (Windows NT 10.0; Win64; x64) AppleWebKit/537.36 (KHTML, like Gecko) Chrome/108.0.0.0 Safari/537.36" version="20.6.0" etag="JwbTFR3-nOQUhvH4rD9_" type="github">
  <diagram id="2wgwKuaH4lBZmRPexriT" name="第 1 页">
    <mxGraphModel dx="1697" dy="1870" grid="1" gridSize="10" guides="1" tooltips="1" connect="1" arrows="1" fold="1" page="1" pageScale="1" pageWidth="827" pageHeight="1169" math="0" shadow="0">
      <root>
        <mxCell id="0" />
        <mxCell id="1" parent="0" />
        <mxCell id="J2fYGo72itP9ht46wXRY-1" value="健康打卡" style="shape=umlFrame;whiteSpace=wrap;html=1;" vertex="1" parent="1">
          <mxGeometry x="160" y="40" width="320" height="280" as="geometry" />
        </mxCell>
        <mxCell id="J2fYGo72itP9ht46wXRY-2" value="学生、教职工" style="shape=umlActor;verticalLabelPosition=bottom;verticalAlign=top;html=1;" vertex="1" parent="1">
          <mxGeometry x="80" y="150" width="30" height="60" as="geometry" />
        </mxCell>
        <mxCell id="J2fYGo72itP9ht46wXRY-3" value="健康打卡" style="ellipse;whiteSpace=wrap;html=1;" vertex="1" parent="1">
          <mxGeometry x="180" y="100" width="100" height="50" as="geometry" />
        </mxCell>
        <mxCell id="J2fYGo72itP9ht46wXRY-4" value="疫情信息" style="ellipse;whiteSpace=wrap;html=1;" vertex="1" parent="1">
          <mxGeometry x="180" y="210" width="100" height="50" as="geometry" />
        </mxCell>
        <mxCell id="J2fYGo72itP9ht46wXRY-5" value="核酸检测" style="ellipse;whiteSpace=wrap;html=1;" vertex="1" parent="1">
          <mxGeometry x="350" y="140" width="100" height="50" as="geometry" />
        </mxCell>
        <mxCell id="J2fYGo72itP9ht46wXRY-6" value="疫苗接种" style="ellipse;whiteSpace=wrap;html=1;" vertex="1" parent="1">
          <mxGeometry x="350" y="200" width="100" height="50" as="geometry" />
        </mxCell>
        <mxCell id="J2fYGo72itP9ht46wXRY-7" value="防疫物资" style="ellipse;whiteSpace=wrap;html=1;" vertex="1" parent="1">
          <mxGeometry x="350" y="260" width="100" height="50" as="geometry" />
        </mxCell>
        <mxCell id="J2fYGo72itP9ht46wXRY-12" value="" style="endArrow=open;endFill=1;endSize=12;html=1;rounded=0;entryX=0;entryY=0.5;entryDx=0;entryDy=0;" edge="1" parent="1" target="J2fYGo72itP9ht46wXRY-6">
          <mxGeometry width="160" relative="1" as="geometry">
            <mxPoint x="280" y="230" as="sourcePoint" />
            <mxPoint x="440" y="230" as="targetPoint" />
          </mxGeometry>
        </mxCell>
        <mxCell id="J2fYGo72itP9ht46wXRY-13" value="" style="endArrow=open;endFill=1;endSize=12;html=1;rounded=0;entryX=0;entryY=0.5;entryDx=0;entryDy=0;" edge="1" parent="1" target="J2fYGo72itP9ht46wXRY-7">
          <mxGeometry width="160" relative="1" as="geometry">
            <mxPoint x="280" y="230" as="sourcePoint" />
            <mxPoint x="440" y="230" as="targetPoint" />
          </mxGeometry>
        </mxCell>
        <mxCell id="J2fYGo72itP9ht46wXRY-16" value="" style="endArrow=open;endFill=1;endSize=12;html=1;rounded=0;entryX=0;entryY=0.5;entryDx=0;entryDy=0;" edge="1" parent="1" target="J2fYGo72itP9ht46wXRY-5">
          <mxGeometry width="160" relative="1" as="geometry">
            <mxPoint x="280" y="230" as="sourcePoint" />
            <mxPoint x="440" y="230" as="targetPoint" />
          </mxGeometry>
        </mxCell>
        <mxCell id="J2fYGo72itP9ht46wXRY-18" value="" style="endArrow=none;html=1;rounded=0;entryX=0;entryY=0.5;entryDx=0;entryDy=0;" edge="1" parent="1" target="J2fYGo72itP9ht46wXRY-4">
          <mxGeometry width="50" height="50" relative="1" as="geometry">
            <mxPoint x="120" y="180" as="sourcePoint" />
            <mxPoint x="170" y="160" as="targetPoint" />
          </mxGeometry>
        </mxCell>
        <mxCell id="J2fYGo72itP9ht46wXRY-19" value="" style="endArrow=none;html=1;rounded=0;" edge="1" parent="1">
          <mxGeometry width="50" height="50" relative="1" as="geometry">
            <mxPoint x="120" y="180" as="sourcePoint" />
            <mxPoint x="180" y="130" as="targetPoint" />
          </mxGeometry>
        </mxCell>
        <mxCell id="J2fYGo72itP9ht46wXRY-20" value="信息管理" style="shape=umlFrame;whiteSpace=wrap;html=1;width=60;height=30;" vertex="1" parent="1">
          <mxGeometry x="160" y="440" width="470" height="370" as="geometry" />
        </mxCell>
        <mxCell id="J2fYGo72itP9ht46wXRY-21" value="辅导员" style="shape=umlActor;verticalLabelPosition=bottom;verticalAlign=top;html=1;" vertex="1" parent="1">
          <mxGeometry x="90" y="605" width="30" height="60" as="geometry" />
        </mxCell>
        <mxCell id="J2fYGo72itP9ht46wXRY-24" value="登录" style="ellipse;whiteSpace=wrap;html=1;" vertex="1" parent="1">
          <mxGeometry x="180" y="500" width="100" height="50" as="geometry" />
        </mxCell>
        <mxCell id="J2fYGo72itP9ht46wXRY-25" value="学生健康信息" style="ellipse;whiteSpace=wrap;html=1;" vertex="1" parent="1">
          <mxGeometry x="180" y="585" width="100" height="50" as="geometry" />
        </mxCell>
        <mxCell id="J2fYGo72itP9ht46wXRY-26" value="查询&lt;span style=&quot;color: rgba(0, 0, 0, 0); font-family: monospace; font-size: 0px; text-align: start;&quot;&gt;%3CmxGraphModel%3E%3Croot%3E%3CmxCell%20id%3D%220%22%2F%3E%3CmxCell%20id%3D%221%22%20parent%3D%220%22%2F%3E%3CmxCell%20id%3D%222%22%20value%3D%22%E5%AD%A6%E7%94%9F%E5%81%A5%E5%BA%B7%E4%BF%A1%E6%81%AF%22%20style%3D%22ellipse%3BwhiteSpace%3Dwrap%3Bhtml%3D1%3B%22%20vertex%3D%221%22%20parent%3D%221%22%3E%3CmxGeometry%20x%3D%22180%22%20y%3D%22570%22%20width%3D%22100%22%20height%3D%2250%22%20as%3D%22geometry%22%2F%3E%3C%2FmxCell%3E%3C%2Froot%3E%3C%2FmxGraphModel%3E&lt;/span&gt;&lt;br&gt;学生健康信息" style="ellipse;whiteSpace=wrap;html=1;" vertex="1" parent="1">
          <mxGeometry x="350" y="480" width="100" height="50" as="geometry" />
        </mxCell>
        <mxCell id="J2fYGo72itP9ht46wXRY-27" value="修改&lt;br&gt;学生健康信息" style="ellipse;whiteSpace=wrap;html=1;" vertex="1" parent="1">
          <mxGeometry x="350" y="550" width="100" height="50" as="geometry" />
        </mxCell>
        <mxCell id="J2fYGo72itP9ht46wXRY-28" value="疫情信息" style="ellipse;whiteSpace=wrap;html=1;" vertex="1" parent="1">
          <mxGeometry x="180" y="680" width="100" height="50" as="geometry" />
        </mxCell>
        <mxCell id="J2fYGo72itP9ht46wXRY-29" value="核酸检测" style="ellipse;whiteSpace=wrap;html=1;" vertex="1" parent="1">
          <mxGeometry x="350" y="610" width="100" height="50" as="geometry" />
        </mxCell>
        <mxCell id="J2fYGo72itP9ht46wXRY-30" value="疫苗接种" style="ellipse;whiteSpace=wrap;html=1;" vertex="1" parent="1">
          <mxGeometry x="350" y="670" width="100" height="50" as="geometry" />
        </mxCell>
        <mxCell id="J2fYGo72itP9ht46wXRY-31" value="防疫物资" style="ellipse;whiteSpace=wrap;html=1;" vertex="1" parent="1">
          <mxGeometry x="350" y="730" width="100" height="50" as="geometry" />
        </mxCell>
        <mxCell id="J2fYGo72itP9ht46wXRY-35" value="" style="endArrow=none;html=1;rounded=0;entryX=0;entryY=0.5;entryDx=0;entryDy=0;" edge="1" parent="1" target="J2fYGo72itP9ht46wXRY-24">
          <mxGeometry width="50" height="50" relative="1" as="geometry">
            <mxPoint x="130" y="640" as="sourcePoint" />
            <mxPoint x="180" y="560" as="targetPoint" />
          </mxGeometry>
        </mxCell>
        <mxCell id="J2fYGo72itP9ht46wXRY-36" value="" style="endArrow=none;html=1;rounded=0;" edge="1" parent="1">
          <mxGeometry width="50" height="50" relative="1" as="geometry">
            <mxPoint x="130" y="640" as="sourcePoint" />
            <mxPoint x="180" y="610" as="targetPoint" />
          </mxGeometry>
        </mxCell>
        <mxCell id="J2fYGo72itP9ht46wXRY-37" value="" style="endArrow=none;html=1;rounded=0;entryX=0;entryY=0.5;entryDx=0;entryDy=0;" edge="1" parent="1" target="J2fYGo72itP9ht46wXRY-28">
          <mxGeometry width="50" height="50" relative="1" as="geometry">
            <mxPoint x="130" y="640" as="sourcePoint" />
            <mxPoint x="180" y="640" as="targetPoint" />
          </mxGeometry>
        </mxCell>
        <mxCell id="J2fYGo72itP9ht46wXRY-42" value="《include》" style="text;html=1;strokeColor=none;fillColor=none;align=center;verticalAlign=middle;whiteSpace=wrap;rounded=0;rotation=-60;" vertex="1" parent="1">
          <mxGeometry x="280" y="530" width="60" height="30" as="geometry" />
        </mxCell>
        <mxCell id="J2fYGo72itP9ht46wXRY-43" value="《include》" style="text;html=1;strokeColor=none;fillColor=none;align=center;verticalAlign=middle;whiteSpace=wrap;rounded=0;rotation=-25;" vertex="1" parent="1">
          <mxGeometry x="290" y="585" width="60" height="30" as="geometry" />
        </mxCell>
        <mxCell id="J2fYGo72itP9ht46wXRY-50" value="" style="endArrow=block;dashed=1;endFill=0;endSize=12;html=1;rounded=0;entryX=0;entryY=0.5;entryDx=0;entryDy=0;exitX=1;exitY=0.5;exitDx=0;exitDy=0;" edge="1" parent="1" source="J2fYGo72itP9ht46wXRY-28" target="J2fYGo72itP9ht46wXRY-31">
          <mxGeometry width="160" relative="1" as="geometry">
            <mxPoint x="280" y="700" as="sourcePoint" />
            <mxPoint x="440" y="710" as="targetPoint" />
          </mxGeometry>
        </mxCell>
        <mxCell id="J2fYGo72itP9ht46wXRY-51" value="" style="endArrow=block;dashed=1;endFill=0;endSize=12;html=1;rounded=0;entryX=0;entryY=0.5;entryDx=0;entryDy=0;exitX=1;exitY=0.5;exitDx=0;exitDy=0;" edge="1" parent="1" source="J2fYGo72itP9ht46wXRY-28" target="J2fYGo72itP9ht46wXRY-30">
          <mxGeometry width="160" relative="1" as="geometry">
            <mxPoint x="280" y="710" as="sourcePoint" />
            <mxPoint x="360" y="765" as="targetPoint" />
          </mxGeometry>
        </mxCell>
        <mxCell id="J2fYGo72itP9ht46wXRY-52" value="" style="endArrow=block;dashed=1;endFill=0;endSize=12;html=1;rounded=0;exitX=1;exitY=0.5;exitDx=0;exitDy=0;entryX=0;entryY=0.5;entryDx=0;entryDy=0;" edge="1" parent="1" source="J2fYGo72itP9ht46wXRY-28" target="J2fYGo72itP9ht46wXRY-29">
          <mxGeometry width="160" relative="1" as="geometry">
            <mxPoint x="190" y="640" as="sourcePoint" />
            <mxPoint x="350" y="640" as="targetPoint" />
          </mxGeometry>
        </mxCell>
        <mxCell id="J2fYGo72itP9ht46wXRY-53" value="" style="endArrow=block;dashed=1;endFill=0;endSize=12;html=1;rounded=0;entryX=0;entryY=0.5;entryDx=0;entryDy=0;" edge="1" parent="1" target="J2fYGo72itP9ht46wXRY-26">
          <mxGeometry width="160" relative="1" as="geometry">
            <mxPoint x="280" y="610" as="sourcePoint" />
            <mxPoint x="440" y="610" as="targetPoint" />
          </mxGeometry>
        </mxCell>
        <mxCell id="J2fYGo72itP9ht46wXRY-54" value="" style="endArrow=block;dashed=1;endFill=0;endSize=12;html=1;rounded=0;entryX=0;entryY=0.5;entryDx=0;entryDy=0;" edge="1" parent="1" target="J2fYGo72itP9ht46wXRY-27">
          <mxGeometry width="160" relative="1" as="geometry">
            <mxPoint x="280" y="610" as="sourcePoint" />
            <mxPoint x="440" y="610" as="targetPoint" />
          </mxGeometry>
        </mxCell>
        <mxCell id="J2fYGo72itP9ht46wXRY-57" value="《include》" style="text;html=1;strokeColor=none;fillColor=none;align=center;verticalAlign=middle;whiteSpace=wrap;rounded=0;rotation=-45;" vertex="1" parent="1">
          <mxGeometry x="280" y="650" width="60" height="30" as="geometry" />
        </mxCell>
        <mxCell id="J2fYGo72itP9ht46wXRY-59" value="《include》" style="text;html=1;strokeColor=none;fillColor=none;align=center;verticalAlign=middle;whiteSpace=wrap;rounded=0;rotation=30;" vertex="1" parent="1">
          <mxGeometry x="290" y="710" width="60" height="30" as="geometry" />
        </mxCell>
        <mxCell id="J2fYGo72itP9ht46wXRY-61" value="《include》" style="text;html=1;strokeColor=none;fillColor=none;align=center;verticalAlign=middle;whiteSpace=wrap;rounded=0;rotation=-15;" vertex="1" parent="1">
          <mxGeometry x="280" y="680" width="60" height="30" as="geometry" />
        </mxCell>
        <mxCell id="J2fYGo72itP9ht46wXRY-63" value="保卫处" style="shape=umlActor;verticalLabelPosition=bottom;verticalAlign=top;html=1;" vertex="1" parent="1">
          <mxGeometry x="660" y="610" width="30" height="60" as="geometry" />
        </mxCell>
        <mxCell id="J2fYGo72itP9ht46wXRY-72" value="修改&lt;br&gt;核酸检测" style="ellipse;whiteSpace=wrap;html=1;" vertex="1" parent="1">
          <mxGeometry x="500" y="610" width="100" height="50" as="geometry" />
        </mxCell>
        <mxCell id="J2fYGo72itP9ht46wXRY-73" value="" style="endArrow=none;html=1;rounded=0;" edge="1" parent="1" source="J2fYGo72itP9ht46wXRY-72">
          <mxGeometry width="50" height="50" relative="1" as="geometry">
            <mxPoint x="580" y="685" as="sourcePoint" />
            <mxPoint x="650.7106781186548" y="635" as="targetPoint" />
          </mxGeometry>
        </mxCell>
        <mxCell id="J2fYGo72itP9ht46wXRY-76" value="" style="endArrow=block;dashed=1;endFill=0;endSize=12;html=1;rounded=0;" edge="1" parent="1">
          <mxGeometry width="160" relative="1" as="geometry">
            <mxPoint x="500" y="634.5" as="sourcePoint" />
            <mxPoint x="450" y="635" as="targetPoint" />
          </mxGeometry>
        </mxCell>
        <mxCell id="J2fYGo72itP9ht46wXRY-77" value="系统管理" style="shape=umlFrame;whiteSpace=wrap;html=1;" vertex="1" parent="1">
          <mxGeometry x="160" y="860" width="290" height="290" as="geometry" />
        </mxCell>
        <mxCell id="J2fYGo72itP9ht46wXRY-78" value="管理员" style="shape=umlActor;verticalLabelPosition=bottom;verticalAlign=top;html=1;" vertex="1" parent="1">
          <mxGeometry x="90" y="975" width="30" height="60" as="geometry" />
        </mxCell>
        <mxCell id="J2fYGo72itP9ht46wXRY-79" value="数据库备份" style="ellipse;whiteSpace=wrap;html=1;" vertex="1" parent="1">
          <mxGeometry x="255" y="950" width="100" height="50" as="geometry" />
        </mxCell>
        <mxCell id="J2fYGo72itP9ht46wXRY-80" value="数据库还原" style="ellipse;whiteSpace=wrap;html=1;" vertex="1" parent="1">
          <mxGeometry x="255" y="1010" width="100" height="50" as="geometry" />
        </mxCell>
        <mxCell id="J2fYGo72itP9ht46wXRY-81" value="日志查看" style="ellipse;whiteSpace=wrap;html=1;" vertex="1" parent="1">
          <mxGeometry x="255" y="1080" width="100" height="50" as="geometry" />
        </mxCell>
        <mxCell id="J2fYGo72itP9ht46wXRY-82" value="权限修改" style="ellipse;whiteSpace=wrap;html=1;" vertex="1" parent="1">
          <mxGeometry x="255" y="880" width="100" height="50" as="geometry" />
        </mxCell>
        <mxCell id="J2fYGo72itP9ht46wXRY-84" value="" style="endArrow=none;html=1;rounded=0;entryX=0;entryY=0.5;entryDx=0;entryDy=0;" edge="1" parent="1" target="J2fYGo72itP9ht46wXRY-82">
          <mxGeometry width="50" height="50" relative="1" as="geometry">
            <mxPoint x="130" y="1000" as="sourcePoint" />
            <mxPoint x="230" y="950" as="targetPoint" />
          </mxGeometry>
        </mxCell>
        <mxCell id="J2fYGo72itP9ht46wXRY-85" value="" style="endArrow=none;html=1;rounded=0;entryX=0;entryY=0.5;entryDx=0;entryDy=0;" edge="1" parent="1" target="J2fYGo72itP9ht46wXRY-79">
          <mxGeometry width="50" height="50" relative="1" as="geometry">
            <mxPoint x="130" y="1000" as="sourcePoint" />
            <mxPoint x="240" y="980" as="targetPoint" />
          </mxGeometry>
        </mxCell>
        <mxCell id="J2fYGo72itP9ht46wXRY-86" value="" style="endArrow=none;html=1;rounded=0;entryX=0;entryY=0.5;entryDx=0;entryDy=0;" edge="1" parent="1" target="J2fYGo72itP9ht46wXRY-80">
          <mxGeometry width="50" height="50" relative="1" as="geometry">
            <mxPoint x="130" y="1000" as="sourcePoint" />
            <mxPoint x="250" y="1040" as="targetPoint" />
          </mxGeometry>
        </mxCell>
        <mxCell id="J2fYGo72itP9ht46wXRY-87" value="" style="endArrow=none;html=1;rounded=0;entryX=0;entryY=0.5;entryDx=0;entryDy=0;" edge="1" parent="1" target="J2fYGo72itP9ht46wXRY-81">
          <mxGeometry width="50" height="50" relative="1" as="geometry">
            <mxPoint x="130" y="1000" as="sourcePoint" />
            <mxPoint x="240" y="1050" as="targetPoint" />
          </mxGeometry>
        </mxCell>
        <mxCell id="J2fYGo72itP9ht46wXRY-88" value="&lt;font style=&quot;font-size: 18px;&quot;&gt;checkout&lt;/font&gt;" style="rounded=0;whiteSpace=wrap;html=1;" vertex="1" parent="1">
          <mxGeometry x="990" y="225" width="95" height="45" as="geometry" />
        </mxCell>
        <mxCell id="J2fYGo72itP9ht46wXRY-89" value="baseId" style="ellipse;whiteSpace=wrap;html=1;fontSize=18;" vertex="1" parent="1">
          <mxGeometry x="865" y="165" width="90" height="55" as="geometry" />
        </mxCell>
        <mxCell id="J2fYGo72itP9ht46wXRY-90" value="name" style="ellipse;whiteSpace=wrap;html=1;fontSize=18;" vertex="1" parent="1">
          <mxGeometry x="930" y="115" width="90" height="55" as="geometry" />
        </mxCell>
        <mxCell id="J2fYGo72itP9ht46wXRY-91" value="currentPosition" style="ellipse;whiteSpace=wrap;html=1;fontSize=18;" vertex="1" parent="1">
          <mxGeometry x="840" y="235" width="90" height="55" as="geometry" />
        </mxCell>
        <mxCell id="J2fYGo72itP9ht46wXRY-92" value="bodyTemperatures" style="ellipse;whiteSpace=wrap;html=1;fontSize=18;" vertex="1" parent="1">
          <mxGeometry x="865" y="300" width="90" height="55" as="geometry" />
        </mxCell>
        <mxCell id="J2fYGo72itP9ht46wXRY-93" value="healthState" style="ellipse;whiteSpace=wrap;html=1;fontSize=18;" vertex="1" parent="1">
          <mxGeometry x="940" y="350" width="90" height="55" as="geometry" />
        </mxCell>
        <mxCell id="J2fYGo72itP9ht46wXRY-94" value="isToHighArea" style="ellipse;whiteSpace=wrap;html=1;fontSize=18;" vertex="1" parent="1">
          <mxGeometry x="1040" y="365" width="90" height="55" as="geometry" />
        </mxCell>
        <mxCell id="J2fYGo72itP9ht46wXRY-95" value="isTouch" style="ellipse;whiteSpace=wrap;html=1;fontSize=18;" vertex="1" parent="1">
          <mxGeometry x="1100" y="310" width="90" height="55" as="geometry" />
        </mxCell>
        <mxCell id="J2fYGo72itP9ht46wXRY-96" value="remarks" style="ellipse;whiteSpace=wrap;html=1;fontSize=18;" vertex="1" parent="1">
          <mxGeometry x="1030" y="105" width="90" height="55" as="geometry" />
        </mxCell>
        <mxCell id="J2fYGo72itP9ht46wXRY-97" value="checkOutDate" style="ellipse;whiteSpace=wrap;html=1;fontSize=18;" vertex="1" parent="1">
          <mxGeometry x="1150" y="250" width="90" height="55" as="geometry" />
        </mxCell>
        <mxCell id="J2fYGo72itP9ht46wXRY-98" value="" style="endArrow=none;html=1;rounded=0;fontSize=18;entryX=0.5;entryY=1;entryDx=0;entryDy=0;exitX=0.5;exitY=0;exitDx=0;exitDy=0;" edge="1" parent="1" source="J2fYGo72itP9ht46wXRY-88" target="J2fYGo72itP9ht46wXRY-96">
          <mxGeometry width="50" height="50" relative="1" as="geometry">
            <mxPoint x="980" y="225" as="sourcePoint" />
            <mxPoint x="1030" y="175" as="targetPoint" />
          </mxGeometry>
        </mxCell>
        <mxCell id="J2fYGo72itP9ht46wXRY-99" value="" style="endArrow=none;html=1;rounded=0;fontSize=18;entryX=0.5;entryY=1;entryDx=0;entryDy=0;exitX=0.5;exitY=0;exitDx=0;exitDy=0;" edge="1" parent="1" source="J2fYGo72itP9ht46wXRY-88" target="J2fYGo72itP9ht46wXRY-90">
          <mxGeometry width="50" height="50" relative="1" as="geometry">
            <mxPoint x="960" y="225" as="sourcePoint" />
            <mxPoint x="1010" y="175" as="targetPoint" />
          </mxGeometry>
        </mxCell>
        <mxCell id="J2fYGo72itP9ht46wXRY-100" value="" style="endArrow=none;html=1;rounded=0;fontSize=18;entryX=0.973;entryY=0.735;entryDx=0;entryDy=0;entryPerimeter=0;exitX=0.5;exitY=0;exitDx=0;exitDy=0;" edge="1" parent="1" source="J2fYGo72itP9ht46wXRY-88" target="J2fYGo72itP9ht46wXRY-89">
          <mxGeometry width="50" height="50" relative="1" as="geometry">
            <mxPoint x="940" y="265" as="sourcePoint" />
            <mxPoint x="990" y="215" as="targetPoint" />
          </mxGeometry>
        </mxCell>
        <mxCell id="J2fYGo72itP9ht46wXRY-101" value="" style="endArrow=none;html=1;rounded=0;fontSize=18;entryX=0;entryY=0.5;entryDx=0;entryDy=0;" edge="1" parent="1" target="J2fYGo72itP9ht46wXRY-88">
          <mxGeometry width="50" height="50" relative="1" as="geometry">
            <mxPoint x="950" y="315" as="sourcePoint" />
            <mxPoint x="1000" y="265" as="targetPoint" />
          </mxGeometry>
        </mxCell>
        <mxCell id="J2fYGo72itP9ht46wXRY-102" value="" style="endArrow=none;html=1;rounded=0;fontSize=18;exitX=1;exitY=0.5;exitDx=0;exitDy=0;entryX=0;entryY=0.5;entryDx=0;entryDy=0;" edge="1" parent="1" target="J2fYGo72itP9ht46wXRY-88">
          <mxGeometry width="50" height="50" relative="1" as="geometry">
            <mxPoint x="930" y="257.5" as="sourcePoint" />
            <mxPoint x="990" y="215" as="targetPoint" />
          </mxGeometry>
        </mxCell>
        <mxCell id="J2fYGo72itP9ht46wXRY-103" value="" style="endArrow=none;html=1;rounded=0;fontSize=18;exitX=0.5;exitY=0;exitDx=0;exitDy=0;entryX=0.5;entryY=1;entryDx=0;entryDy=0;" edge="1" parent="1" source="J2fYGo72itP9ht46wXRY-93" target="J2fYGo72itP9ht46wXRY-88">
          <mxGeometry width="50" height="50" relative="1" as="geometry">
            <mxPoint x="1010" y="345" as="sourcePoint" />
            <mxPoint x="1060" y="295" as="targetPoint" />
          </mxGeometry>
        </mxCell>
        <mxCell id="J2fYGo72itP9ht46wXRY-104" value="" style="endArrow=none;html=1;rounded=0;fontSize=18;exitX=0.5;exitY=0;exitDx=0;exitDy=0;entryX=0.5;entryY=1;entryDx=0;entryDy=0;" edge="1" parent="1" source="J2fYGo72itP9ht46wXRY-94" target="J2fYGo72itP9ht46wXRY-88">
          <mxGeometry width="50" height="50" relative="1" as="geometry">
            <mxPoint x="1040" y="345" as="sourcePoint" />
            <mxPoint x="1030" y="265" as="targetPoint" />
          </mxGeometry>
        </mxCell>
        <mxCell id="J2fYGo72itP9ht46wXRY-105" value="" style="endArrow=none;html=1;rounded=0;fontSize=18;entryX=0.5;entryY=1;entryDx=0;entryDy=0;exitX=0;exitY=0.5;exitDx=0;exitDy=0;" edge="1" parent="1" source="J2fYGo72itP9ht46wXRY-95" target="J2fYGo72itP9ht46wXRY-88">
          <mxGeometry width="50" height="50" relative="1" as="geometry">
            <mxPoint x="1070" y="325" as="sourcePoint" />
            <mxPoint x="1120" y="275" as="targetPoint" />
          </mxGeometry>
        </mxCell>
        <mxCell id="J2fYGo72itP9ht46wXRY-106" value="" style="endArrow=none;html=1;rounded=0;fontSize=18;exitX=1;exitY=0.5;exitDx=0;exitDy=0;entryX=0;entryY=0.5;entryDx=0;entryDy=0;" edge="1" parent="1" source="J2fYGo72itP9ht46wXRY-88" target="J2fYGo72itP9ht46wXRY-97">
          <mxGeometry width="50" height="50" relative="1" as="geometry">
            <mxPoint x="1130" y="225" as="sourcePoint" />
            <mxPoint x="1180" y="175" as="targetPoint" />
          </mxGeometry>
        </mxCell>
        <mxCell id="J2fYGo72itP9ht46wXRY-107" value="&lt;font style=&quot;font-size: 18px;&quot;&gt;user&lt;/font&gt;" style="rounded=0;whiteSpace=wrap;html=1;" vertex="1" parent="1">
          <mxGeometry x="1428" y="110" width="95" height="45" as="geometry" />
        </mxCell>
        <mxCell id="J2fYGo72itP9ht46wXRY-108" value="id" style="ellipse;whiteSpace=wrap;html=1;fontSize=18;" vertex="1" parent="1">
          <mxGeometry x="1478" y="25" width="90" height="55" as="geometry" />
        </mxCell>
        <mxCell id="J2fYGo72itP9ht46wXRY-109" value="username&lt;span style=&quot;color: rgba(0, 0, 0, 0); font-family: monospace; font-size: 0px; text-align: start;&quot;&gt;%3CmxGraphModel%3E%3Croot%3E%3CmxCell%20id%3D%220%22%2F%3E%3CmxCell%20id%3D%221%22%20parent%3D%220%22%2F%3E%3CmxCell%20id%3D%222%22%20value%3D%22id%22%20style%3D%22ellipse%3BwhiteSpace%3Dwrap%3Bhtml%3D1%3BfontSize%3D18%3B%22%20vertex%3D%221%22%20parent%3D%221%22%3E%3CmxGeometry%20x%3D%221440%22%20y%3D%22250%22%20width%3D%2290%22%20height%3D%2255%22%20as%3D%22geometry%22%2F%3E%3C%2FmxCell%3E%3C%2Froot%3E%3C%2FmxGraphModel%3E&lt;/span&gt;" style="ellipse;whiteSpace=wrap;html=1;fontSize=18;" vertex="1" parent="1">
          <mxGeometry x="1548" y="75" width="90" height="55" as="geometry" />
        </mxCell>
        <mxCell id="J2fYGo72itP9ht46wXRY-110" value="password" style="ellipse;whiteSpace=wrap;html=1;fontSize=18;" vertex="1" parent="1">
          <mxGeometry x="1548" y="135" width="90" height="55" as="geometry" />
        </mxCell>
        <mxCell id="J2fYGo72itP9ht46wXRY-111" value="phone" style="ellipse;whiteSpace=wrap;html=1;fontSize=18;" vertex="1" parent="1">
          <mxGeometry x="1378" y="25" width="90" height="55" as="geometry" />
        </mxCell>
        <mxCell id="J2fYGo72itP9ht46wXRY-112" value="unit" style="ellipse;whiteSpace=wrap;html=1;fontSize=18;" vertex="1" parent="1">
          <mxGeometry x="1298" y="65" width="90" height="55" as="geometry" />
        </mxCell>
        <mxCell id="J2fYGo72itP9ht46wXRY-113" value="name" style="ellipse;whiteSpace=wrap;html=1;fontSize=18;" vertex="1" parent="1">
          <mxGeometry x="1468" y="180" width="90" height="55" as="geometry" />
        </mxCell>
        <mxCell id="J2fYGo72itP9ht46wXRY-114" value="" style="endArrow=none;html=1;rounded=0;fontSize=18;entryX=1;entryY=0.5;entryDx=0;entryDy=0;exitX=0.5;exitY=0;exitDx=0;exitDy=0;" edge="1" parent="1" source="J2fYGo72itP9ht46wXRY-107" target="J2fYGo72itP9ht46wXRY-112">
          <mxGeometry width="50" height="50" relative="1" as="geometry">
            <mxPoint x="1368" y="165" as="sourcePoint" />
            <mxPoint x="1418" y="115" as="targetPoint" />
          </mxGeometry>
        </mxCell>
        <mxCell id="J2fYGo72itP9ht46wXRY-115" value="" style="endArrow=none;html=1;rounded=0;fontSize=18;entryX=0.5;entryY=1;entryDx=0;entryDy=0;exitX=0.5;exitY=0;exitDx=0;exitDy=0;" edge="1" parent="1" source="J2fYGo72itP9ht46wXRY-113" target="J2fYGo72itP9ht46wXRY-107">
          <mxGeometry width="50" height="50" relative="1" as="geometry">
            <mxPoint x="1398" y="315" as="sourcePoint" />
            <mxPoint x="1448" y="265" as="targetPoint" />
          </mxGeometry>
        </mxCell>
        <mxCell id="J2fYGo72itP9ht46wXRY-116" value="" style="endArrow=none;html=1;rounded=0;fontSize=18;entryX=0;entryY=0.5;entryDx=0;entryDy=0;exitX=1;exitY=1;exitDx=0;exitDy=0;" edge="1" parent="1" source="J2fYGo72itP9ht46wXRY-107" target="J2fYGo72itP9ht46wXRY-110">
          <mxGeometry width="50" height="50" relative="1" as="geometry">
            <mxPoint x="1528" y="135" as="sourcePoint" />
            <mxPoint x="1388" y="265" as="targetPoint" />
          </mxGeometry>
        </mxCell>
        <mxCell id="J2fYGo72itP9ht46wXRY-117" value="" style="endArrow=none;html=1;rounded=0;fontSize=18;entryX=0.5;entryY=1;entryDx=0;entryDy=0;exitX=0.5;exitY=0;exitDx=0;exitDy=0;" edge="1" parent="1" source="J2fYGo72itP9ht46wXRY-107" target="J2fYGo72itP9ht46wXRY-111">
          <mxGeometry width="50" height="50" relative="1" as="geometry">
            <mxPoint x="1278" y="355" as="sourcePoint" />
            <mxPoint x="1328" y="305" as="targetPoint" />
          </mxGeometry>
        </mxCell>
        <mxCell id="J2fYGo72itP9ht46wXRY-118" value="" style="endArrow=none;html=1;rounded=0;fontSize=18;entryX=0.5;entryY=1;entryDx=0;entryDy=0;" edge="1" parent="1" source="J2fYGo72itP9ht46wXRY-107" target="J2fYGo72itP9ht46wXRY-108">
          <mxGeometry width="50" height="50" relative="1" as="geometry">
            <mxPoint x="1478" y="115" as="sourcePoint" />
            <mxPoint x="1528" y="65" as="targetPoint" />
          </mxGeometry>
        </mxCell>
        <mxCell id="J2fYGo72itP9ht46wXRY-121" value="" style="endArrow=none;html=1;rounded=0;fontSize=18;entryX=0.038;entryY=0.684;entryDx=0;entryDy=0;entryPerimeter=0;exitX=1;exitY=0.5;exitDx=0;exitDy=0;" edge="1" parent="1" source="J2fYGo72itP9ht46wXRY-107" target="J2fYGo72itP9ht46wXRY-109">
          <mxGeometry width="50" height="50" relative="1" as="geometry">
            <mxPoint x="1528" y="125" as="sourcePoint" />
            <mxPoint x="1568" y="85" as="targetPoint" />
          </mxGeometry>
        </mxCell>
        <mxCell id="J2fYGo72itP9ht46wXRY-122" value="查看" style="rhombus;whiteSpace=wrap;html=1;fontSize=18;" vertex="1" parent="1">
          <mxGeometry x="1228" y="155" width="62" height="60" as="geometry" />
        </mxCell>
        <mxCell id="J2fYGo72itP9ht46wXRY-123" value="" style="endArrow=none;html=1;rounded=0;fontSize=18;exitX=1;exitY=0;exitDx=0;exitDy=0;entryX=0;entryY=0.5;entryDx=0;entryDy=0;" edge="1" parent="1" source="J2fYGo72itP9ht46wXRY-88" target="J2fYGo72itP9ht46wXRY-122">
          <mxGeometry width="50" height="50" relative="1" as="geometry">
            <mxPoint x="1138" y="225" as="sourcePoint" />
            <mxPoint x="1188" y="175" as="targetPoint" />
          </mxGeometry>
        </mxCell>
        <mxCell id="J2fYGo72itP9ht46wXRY-124" value="" style="endArrow=none;html=1;rounded=0;fontSize=18;exitX=1;exitY=0.5;exitDx=0;exitDy=0;entryX=0;entryY=1;entryDx=0;entryDy=0;" edge="1" parent="1" source="J2fYGo72itP9ht46wXRY-122" target="J2fYGo72itP9ht46wXRY-107">
          <mxGeometry width="50" height="50" relative="1" as="geometry">
            <mxPoint x="1338" y="225" as="sourcePoint" />
            <mxPoint x="1388" y="175" as="targetPoint" />
          </mxGeometry>
        </mxCell>
        <mxCell id="J2fYGo72itP9ht46wXRY-127" value="n" style="text;html=1;strokeColor=none;fillColor=none;align=center;verticalAlign=middle;whiteSpace=wrap;rounded=0;fontSize=18;" vertex="1" parent="1">
          <mxGeometry x="1060" y="195" width="60" height="30" as="geometry" />
        </mxCell>
        <mxCell id="J2fYGo72itP9ht46wXRY-128" value="1" style="text;html=1;strokeColor=none;fillColor=none;align=center;verticalAlign=middle;whiteSpace=wrap;rounded=0;fontSize=18;" vertex="1" parent="1">
          <mxGeometry x="1180" y="190" width="60" height="30" as="geometry" />
        </mxCell>
        <mxCell id="J2fYGo72itP9ht46wXRY-130" value="&lt;font style=&quot;font-size: 18px;&quot;&gt;base&lt;/font&gt;" style="rounded=0;whiteSpace=wrap;html=1;" vertex="1" parent="1">
          <mxGeometry x="1399" y="435" width="95" height="45" as="geometry" />
        </mxCell>
        <mxCell id="J2fYGo72itP9ht46wXRY-131" value="id" style="ellipse;whiteSpace=wrap;html=1;fontSize=18;" vertex="1" parent="1">
          <mxGeometry x="1539" y="392.5" width="90" height="55" as="geometry" />
        </mxCell>
        <mxCell id="J2fYGo72itP9ht46wXRY-132" value="idCard" style="ellipse;whiteSpace=wrap;html=1;fontSize=18;" vertex="1" parent="1">
          <mxGeometry x="1519" y="457.5" width="90" height="55" as="geometry" />
        </mxCell>
        <mxCell id="J2fYGo72itP9ht46wXRY-133" value="name" style="ellipse;whiteSpace=wrap;html=1;fontSize=18;" vertex="1" parent="1">
          <mxGeometry x="1433" y="505" width="90" height="55" as="geometry" />
        </mxCell>
        <mxCell id="J2fYGo72itP9ht46wXRY-134" value="age" style="ellipse;whiteSpace=wrap;html=1;fontSize=18;" vertex="1" parent="1">
          <mxGeometry x="1338" y="505" width="90" height="55" as="geometry" />
        </mxCell>
        <mxCell id="J2fYGo72itP9ht46wXRY-135" value="gender" style="ellipse;whiteSpace=wrap;html=1;fontSize=18;" vertex="1" parent="1">
          <mxGeometry x="1459" y="360" width="90" height="55" as="geometry" />
        </mxCell>
        <mxCell id="J2fYGo72itP9ht46wXRY-136" value="address" style="ellipse;whiteSpace=wrap;html=1;fontSize=18;" vertex="1" parent="1">
          <mxGeometry x="1279" y="455" width="90" height="55" as="geometry" />
        </mxCell>
        <mxCell id="J2fYGo72itP9ht46wXRY-137" value="phone" style="ellipse;whiteSpace=wrap;html=1;fontSize=18;" vertex="1" parent="1">
          <mxGeometry x="1289" y="377.5" width="90" height="55" as="geometry" />
        </mxCell>
        <mxCell id="J2fYGo72itP9ht46wXRY-138" value="修改" style="rhombus;whiteSpace=wrap;html=1;fontSize=18;" vertex="1" parent="1">
          <mxGeometry x="1379" y="270" width="62" height="60" as="geometry" />
        </mxCell>
        <mxCell id="J2fYGo72itP9ht46wXRY-139" value="" style="endArrow=none;html=1;rounded=0;fontSize=18;entryX=0.25;entryY=1;entryDx=0;entryDy=0;exitX=0.5;exitY=0;exitDx=0;exitDy=0;" edge="1" parent="1" source="J2fYGo72itP9ht46wXRY-138" target="J2fYGo72itP9ht46wXRY-107">
          <mxGeometry width="50" height="50" relative="1" as="geometry">
            <mxPoint x="1338" y="255" as="sourcePoint" />
            <mxPoint x="1388" y="205" as="targetPoint" />
          </mxGeometry>
        </mxCell>
        <mxCell id="J2fYGo72itP9ht46wXRY-140" value="" style="endArrow=none;html=1;rounded=0;fontSize=18;entryX=0.5;entryY=1;entryDx=0;entryDy=0;exitX=0.5;exitY=0;exitDx=0;exitDy=0;" edge="1" parent="1" source="J2fYGo72itP9ht46wXRY-130" target="J2fYGo72itP9ht46wXRY-138">
          <mxGeometry width="50" height="50" relative="1" as="geometry">
            <mxPoint x="1298" y="345" as="sourcePoint" />
            <mxPoint x="1348" y="295" as="targetPoint" />
          </mxGeometry>
        </mxCell>
        <mxCell id="J2fYGo72itP9ht46wXRY-141" value="1" style="text;html=1;strokeColor=none;fillColor=none;align=center;verticalAlign=middle;whiteSpace=wrap;rounded=0;fontSize=18;" vertex="1" parent="1">
          <mxGeometry x="1399" y="160" width="60" height="30" as="geometry" />
        </mxCell>
        <mxCell id="J2fYGo72itP9ht46wXRY-142" value="" style="endArrow=none;html=1;rounded=0;fontSize=18;entryX=0;entryY=0.5;entryDx=0;entryDy=0;" edge="1" parent="1" target="J2fYGo72itP9ht46wXRY-130">
          <mxGeometry width="50" height="50" relative="1" as="geometry">
            <mxPoint x="1358" y="465" as="sourcePoint" />
            <mxPoint x="1408" y="415" as="targetPoint" />
          </mxGeometry>
        </mxCell>
        <mxCell id="J2fYGo72itP9ht46wXRY-143" value="" style="endArrow=none;html=1;rounded=0;fontSize=18;exitX=0;exitY=0.5;exitDx=0;exitDy=0;entryX=1;entryY=1;entryDx=0;entryDy=0;" edge="1" parent="1" source="J2fYGo72itP9ht46wXRY-130" target="J2fYGo72itP9ht46wXRY-137">
          <mxGeometry width="50" height="50" relative="1" as="geometry">
            <mxPoint x="1378" y="435" as="sourcePoint" />
            <mxPoint x="1428" y="385" as="targetPoint" />
          </mxGeometry>
        </mxCell>
        <mxCell id="J2fYGo72itP9ht46wXRY-144" value="" style="endArrow=none;html=1;rounded=0;fontSize=18;entryX=0.5;entryY=1;entryDx=0;entryDy=0;exitX=1;exitY=0.5;exitDx=0;exitDy=0;" edge="1" parent="1" source="J2fYGo72itP9ht46wXRY-130" target="J2fYGo72itP9ht46wXRY-135">
          <mxGeometry width="50" height="50" relative="1" as="geometry">
            <mxPoint x="1448" y="455" as="sourcePoint" />
            <mxPoint x="1498" y="405" as="targetPoint" />
          </mxGeometry>
        </mxCell>
        <mxCell id="J2fYGo72itP9ht46wXRY-145" value="" style="endArrow=none;html=1;rounded=0;fontSize=18;entryX=0.013;entryY=0.642;entryDx=0;entryDy=0;entryPerimeter=0;exitX=1;exitY=0.5;exitDx=0;exitDy=0;" edge="1" parent="1" source="J2fYGo72itP9ht46wXRY-130" target="J2fYGo72itP9ht46wXRY-131">
          <mxGeometry width="50" height="50" relative="1" as="geometry">
            <mxPoint x="1498" y="455" as="sourcePoint" />
            <mxPoint x="1548" y="415" as="targetPoint" />
          </mxGeometry>
        </mxCell>
        <mxCell id="J2fYGo72itP9ht46wXRY-146" value="" style="endArrow=none;html=1;rounded=0;fontSize=18;exitX=1;exitY=0.5;exitDx=0;exitDy=0;" edge="1" parent="1" source="J2fYGo72itP9ht46wXRY-130">
          <mxGeometry width="50" height="50" relative="1" as="geometry">
            <mxPoint x="1468" y="525" as="sourcePoint" />
            <mxPoint x="1518" y="485" as="targetPoint" />
          </mxGeometry>
        </mxCell>
        <mxCell id="J2fYGo72itP9ht46wXRY-147" value="" style="endArrow=none;html=1;rounded=0;fontSize=18;entryX=0;entryY=0.5;entryDx=0;entryDy=0;" edge="1" parent="1" source="J2fYGo72itP9ht46wXRY-134" target="J2fYGo72itP9ht46wXRY-130">
          <mxGeometry width="50" height="50" relative="1" as="geometry">
            <mxPoint x="1388" y="545" as="sourcePoint" />
            <mxPoint x="1438" y="495" as="targetPoint" />
          </mxGeometry>
        </mxCell>
        <mxCell id="J2fYGo72itP9ht46wXRY-148" value="" style="endArrow=none;html=1;rounded=0;fontSize=18;entryX=0.5;entryY=1;entryDx=0;entryDy=0;exitX=0.5;exitY=0;exitDx=0;exitDy=0;" edge="1" parent="1" source="J2fYGo72itP9ht46wXRY-133" target="J2fYGo72itP9ht46wXRY-130">
          <mxGeometry width="50" height="50" relative="1" as="geometry">
            <mxPoint x="1438" y="535" as="sourcePoint" />
            <mxPoint x="1488" y="485" as="targetPoint" />
          </mxGeometry>
        </mxCell>
        <mxCell id="J2fYGo72itP9ht46wXRY-149" value="n" style="text;html=1;strokeColor=none;fillColor=none;align=center;verticalAlign=middle;whiteSpace=wrap;rounded=0;fontSize=18;" vertex="1" parent="1">
          <mxGeometry x="1428" y="405" width="60" height="30" as="geometry" />
        </mxCell>
        <mxCell id="J2fYGo72itP9ht46wXRY-155" style="edgeStyle=orthogonalEdgeStyle;rounded=0;orthogonalLoop=1;jettySize=auto;html=1;exitX=0.5;exitY=1;exitDx=0;exitDy=0;entryX=0.5;entryY=0;entryDx=0;entryDy=0;fontSize=18;" edge="1" parent="1" source="J2fYGo72itP9ht46wXRY-150" target="J2fYGo72itP9ht46wXRY-151">
          <mxGeometry relative="1" as="geometry" />
        </mxCell>
        <mxCell id="J2fYGo72itP9ht46wXRY-156" style="edgeStyle=orthogonalEdgeStyle;rounded=0;orthogonalLoop=1;jettySize=auto;html=1;exitX=0.5;exitY=1;exitDx=0;exitDy=0;entryX=0.5;entryY=0;entryDx=0;entryDy=0;fontSize=18;" edge="1" parent="1" source="J2fYGo72itP9ht46wXRY-150" target="J2fYGo72itP9ht46wXRY-152">
          <mxGeometry relative="1" as="geometry" />
        </mxCell>
        <mxCell id="J2fYGo72itP9ht46wXRY-157" style="edgeStyle=orthogonalEdgeStyle;rounded=0;orthogonalLoop=1;jettySize=auto;html=1;exitX=0.5;exitY=1;exitDx=0;exitDy=0;entryX=0.5;entryY=0;entryDx=0;entryDy=0;fontSize=18;" edge="1" parent="1" source="J2fYGo72itP9ht46wXRY-150" target="J2fYGo72itP9ht46wXRY-153">
          <mxGeometry relative="1" as="geometry" />
        </mxCell>
        <mxCell id="J2fYGo72itP9ht46wXRY-158" style="edgeStyle=orthogonalEdgeStyle;rounded=0;orthogonalLoop=1;jettySize=auto;html=1;exitX=0.5;exitY=1;exitDx=0;exitDy=0;entryX=0.5;entryY=0;entryDx=0;entryDy=0;fontSize=18;" edge="1" parent="1" source="J2fYGo72itP9ht46wXRY-150" target="J2fYGo72itP9ht46wXRY-154">
          <mxGeometry relative="1" as="geometry" />
        </mxCell>
        <mxCell id="J2fYGo72itP9ht46wXRY-150" value="疫情信息管理系统" style="rounded=0;whiteSpace=wrap;html=1;fontSize=18;" vertex="1" parent="1">
          <mxGeometry x="1143" y="615" width="232" height="50" as="geometry" />
        </mxCell>
        <mxCell id="J2fYGo72itP9ht46wXRY-151" value="健康上报" style="rounded=0;whiteSpace=wrap;html=1;fontSize=18;" vertex="1" parent="1">
          <mxGeometry x="1040" y="740" width="50" height="250" as="geometry" />
        </mxCell>
        <mxCell id="J2fYGo72itP9ht46wXRY-152" value="健康上报信息汇总" style="rounded=0;whiteSpace=wrap;html=1;fontSize=18;" vertex="1" parent="1">
          <mxGeometry x="1170" y="740" width="50" height="250" as="geometry" />
        </mxCell>
        <mxCell id="J2fYGo72itP9ht46wXRY-153" value="系统用户管理" style="rounded=0;whiteSpace=wrap;html=1;fontSize=18;" vertex="1" parent="1">
          <mxGeometry x="1289" y="740" width="50" height="250" as="geometry" />
        </mxCell>
        <mxCell id="J2fYGo72itP9ht46wXRY-154" value="疫情人员管理" style="rounded=0;whiteSpace=wrap;html=1;fontSize=18;" vertex="1" parent="1">
          <mxGeometry x="1404" y="740" width="50" height="250" as="geometry" />
        </mxCell>
        <mxCell id="J2fYGo72itP9ht46wXRY-159" style="edgeStyle=orthogonalEdgeStyle;rounded=0;orthogonalLoop=1;jettySize=auto;html=1;exitX=0.5;exitY=1;exitDx=0;exitDy=0;entryX=0.5;entryY=0;entryDx=0;entryDy=0;fontSize=18;" edge="1" parent="1" source="J2fYGo72itP9ht46wXRY-163" target="J2fYGo72itP9ht46wXRY-164">
          <mxGeometry relative="1" as="geometry" />
        </mxCell>
        <mxCell id="J2fYGo72itP9ht46wXRY-160" style="edgeStyle=orthogonalEdgeStyle;rounded=0;orthogonalLoop=1;jettySize=auto;html=1;exitX=0.5;exitY=1;exitDx=0;exitDy=0;entryX=0.5;entryY=0;entryDx=0;entryDy=0;fontSize=18;" edge="1" parent="1" source="J2fYGo72itP9ht46wXRY-163" target="J2fYGo72itP9ht46wXRY-165">
          <mxGeometry relative="1" as="geometry" />
        </mxCell>
        <mxCell id="J2fYGo72itP9ht46wXRY-161" style="edgeStyle=orthogonalEdgeStyle;rounded=0;orthogonalLoop=1;jettySize=auto;html=1;exitX=0.5;exitY=1;exitDx=0;exitDy=0;entryX=0.5;entryY=0;entryDx=0;entryDy=0;fontSize=18;" edge="1" parent="1" source="J2fYGo72itP9ht46wXRY-163" target="J2fYGo72itP9ht46wXRY-166">
          <mxGeometry relative="1" as="geometry" />
        </mxCell>
        <mxCell id="J2fYGo72itP9ht46wXRY-163" value="健康上报汇总模块" style="rounded=0;whiteSpace=wrap;html=1;fontSize=18;" vertex="1" parent="1">
          <mxGeometry x="1143" y="1080" width="232" height="50" as="geometry" />
        </mxCell>
        <mxCell id="J2fYGo72itP9ht46wXRY-164" value="健康上报" style="rounded=0;whiteSpace=wrap;html=1;fontSize=18;" vertex="1" parent="1">
          <mxGeometry x="1105" y="1220" width="50" height="250" as="geometry" />
        </mxCell>
        <mxCell id="J2fYGo72itP9ht46wXRY-165" value="上报列表" style="rounded=0;whiteSpace=wrap;html=1;fontSize=18;" vertex="1" parent="1">
          <mxGeometry x="1235" y="1220" width="50" height="250" as="geometry" />
        </mxCell>
        <mxCell id="J2fYGo72itP9ht46wXRY-166" value="查询用户上报信息" style="rounded=0;whiteSpace=wrap;html=1;fontSize=18;" vertex="1" parent="1">
          <mxGeometry x="1354" y="1220" width="50" height="250" as="geometry" />
        </mxCell>
        <mxCell id="J2fYGo72itP9ht46wXRY-177" style="edgeStyle=orthogonalEdgeStyle;rounded=0;orthogonalLoop=1;jettySize=auto;html=1;exitX=0.5;exitY=1;exitDx=0;exitDy=0;entryX=0.5;entryY=0;entryDx=0;entryDy=0;fontSize=18;" edge="1" parent="1" source="J2fYGo72itP9ht46wXRY-180" target="J2fYGo72itP9ht46wXRY-181">
          <mxGeometry relative="1" as="geometry" />
        </mxCell>
        <mxCell id="J2fYGo72itP9ht46wXRY-178" style="edgeStyle=orthogonalEdgeStyle;rounded=0;orthogonalLoop=1;jettySize=auto;html=1;exitX=0.5;exitY=1;exitDx=0;exitDy=0;entryX=0.5;entryY=0;entryDx=0;entryDy=0;fontSize=18;" edge="1" parent="1" source="J2fYGo72itP9ht46wXRY-180" target="J2fYGo72itP9ht46wXRY-182">
          <mxGeometry relative="1" as="geometry" />
        </mxCell>
        <mxCell id="J2fYGo72itP9ht46wXRY-179" style="edgeStyle=orthogonalEdgeStyle;rounded=0;orthogonalLoop=1;jettySize=auto;html=1;exitX=0.5;exitY=1;exitDx=0;exitDy=0;entryX=0.5;entryY=0;entryDx=0;entryDy=0;fontSize=18;" edge="1" parent="1" source="J2fYGo72itP9ht46wXRY-180" target="J2fYGo72itP9ht46wXRY-183">
          <mxGeometry relative="1" as="geometry" />
        </mxCell>
        <mxCell id="J2fYGo72itP9ht46wXRY-180" value="疫情人员管理模块" style="rounded=0;whiteSpace=wrap;html=1;fontSize=18;" vertex="1" parent="1">
          <mxGeometry x="1138" y="1558" width="232" height="50" as="geometry" />
        </mxCell>
        <mxCell id="J2fYGo72itP9ht46wXRY-194" style="edgeStyle=orthogonalEdgeStyle;rounded=0;orthogonalLoop=1;jettySize=auto;html=1;exitX=0.5;exitY=1;exitDx=0;exitDy=0;entryX=0.5;entryY=0;entryDx=0;entryDy=0;fontSize=18;" edge="1" parent="1" source="J2fYGo72itP9ht46wXRY-181" target="J2fYGo72itP9ht46wXRY-184">
          <mxGeometry relative="1" as="geometry" />
        </mxCell>
        <mxCell id="J2fYGo72itP9ht46wXRY-195" style="edgeStyle=orthogonalEdgeStyle;rounded=0;orthogonalLoop=1;jettySize=auto;html=1;exitX=0.5;exitY=1;exitDx=0;exitDy=0;entryX=0.5;entryY=0;entryDx=0;entryDy=0;fontSize=18;" edge="1" parent="1" source="J2fYGo72itP9ht46wXRY-181" target="J2fYGo72itP9ht46wXRY-185">
          <mxGeometry relative="1" as="geometry" />
        </mxCell>
        <mxCell id="J2fYGo72itP9ht46wXRY-196" style="edgeStyle=orthogonalEdgeStyle;rounded=0;orthogonalLoop=1;jettySize=auto;html=1;exitX=0.5;exitY=1;exitDx=0;exitDy=0;fontSize=18;" edge="1" parent="1" source="J2fYGo72itP9ht46wXRY-181" target="J2fYGo72itP9ht46wXRY-186">
          <mxGeometry relative="1" as="geometry" />
        </mxCell>
        <mxCell id="J2fYGo72itP9ht46wXRY-181" value="密切接触者管理" style="rounded=0;whiteSpace=wrap;html=1;fontSize=18;" vertex="1" parent="1">
          <mxGeometry x="1000" y="1698" width="50" height="250" as="geometry" />
        </mxCell>
        <mxCell id="J2fYGo72itP9ht46wXRY-197" style="edgeStyle=orthogonalEdgeStyle;rounded=0;orthogonalLoop=1;jettySize=auto;html=1;exitX=0.5;exitY=1;exitDx=0;exitDy=0;entryX=0.5;entryY=0;entryDx=0;entryDy=0;fontSize=18;" edge="1" parent="1" source="J2fYGo72itP9ht46wXRY-182" target="J2fYGo72itP9ht46wXRY-187">
          <mxGeometry relative="1" as="geometry" />
        </mxCell>
        <mxCell id="J2fYGo72itP9ht46wXRY-198" style="edgeStyle=orthogonalEdgeStyle;rounded=0;orthogonalLoop=1;jettySize=auto;html=1;exitX=0.5;exitY=1;exitDx=0;exitDy=0;entryX=0.5;entryY=0;entryDx=0;entryDy=0;fontSize=18;" edge="1" parent="1" source="J2fYGo72itP9ht46wXRY-182" target="J2fYGo72itP9ht46wXRY-188">
          <mxGeometry relative="1" as="geometry" />
        </mxCell>
        <mxCell id="J2fYGo72itP9ht46wXRY-199" style="edgeStyle=orthogonalEdgeStyle;rounded=0;orthogonalLoop=1;jettySize=auto;html=1;exitX=0.5;exitY=1;exitDx=0;exitDy=0;entryX=0.5;entryY=0;entryDx=0;entryDy=0;fontSize=18;" edge="1" parent="1" source="J2fYGo72itP9ht46wXRY-182" target="J2fYGo72itP9ht46wXRY-189">
          <mxGeometry relative="1" as="geometry" />
        </mxCell>
        <mxCell id="J2fYGo72itP9ht46wXRY-200" style="edgeStyle=orthogonalEdgeStyle;rounded=0;orthogonalLoop=1;jettySize=auto;html=1;exitX=0.5;exitY=1;exitDx=0;exitDy=0;entryX=0.5;entryY=0;entryDx=0;entryDy=0;fontSize=18;" edge="1" parent="1" source="J2fYGo72itP9ht46wXRY-182" target="J2fYGo72itP9ht46wXRY-191">
          <mxGeometry relative="1" as="geometry" />
        </mxCell>
        <mxCell id="J2fYGo72itP9ht46wXRY-182" value="确诊患者管理" style="rounded=0;whiteSpace=wrap;html=1;fontSize=18;" vertex="1" parent="1">
          <mxGeometry x="1229" y="1698" width="50" height="250" as="geometry" />
        </mxCell>
        <mxCell id="J2fYGo72itP9ht46wXRY-201" style="edgeStyle=orthogonalEdgeStyle;rounded=0;orthogonalLoop=1;jettySize=auto;html=1;exitX=0.5;exitY=1;exitDx=0;exitDy=0;entryX=0.5;entryY=0;entryDx=0;entryDy=0;fontSize=18;" edge="1" parent="1" source="J2fYGo72itP9ht46wXRY-183" target="J2fYGo72itP9ht46wXRY-192">
          <mxGeometry relative="1" as="geometry" />
        </mxCell>
        <mxCell id="J2fYGo72itP9ht46wXRY-183" value="治愈管理" style="rounded=0;whiteSpace=wrap;html=1;fontSize=18;" vertex="1" parent="1">
          <mxGeometry x="1428" y="1698" width="50" height="250" as="geometry" />
        </mxCell>
        <mxCell id="J2fYGo72itP9ht46wXRY-184" value="添加密切接触者" style="rounded=0;whiteSpace=wrap;html=1;fontSize=18;" vertex="1" parent="1">
          <mxGeometry x="930" y="2000" width="50" height="250" as="geometry" />
        </mxCell>
        <mxCell id="J2fYGo72itP9ht46wXRY-185" value="密切接触者结束隔离&lt;span style=&quot;color: rgba(0, 0, 0, 0); font-family: monospace; font-size: 0px; text-align: start;&quot;&gt;%3CmxGraphModel%3E%3Croot%3E%3CmxCell%20id%3D%220%22%2F%3E%3CmxCell%20id%3D%221%22%20parent%3D%220%22%2F%3E%3CmxCell%20id%3D%222%22%20value%3D%22%E5%AF%86%E5%88%87%E6%8E%A5%E8%A7%A6%E8%80%85%E7%AE%A1%E7%90%86%22%20style%3D%22rounded%3D0%3BwhiteSpace%3Dwrap%3Bhtml%3D1%3BfontSize%3D18%3B%22%20vertex%3D%221%22%20parent%3D%221%22%3E%3CmxGeometry%20x%3D%221100%22%20y%3D%221698%22%20width%3D%2250%22%20height%3D%22250%22%20as%3D%22geometry%22%2F%3E%3C%2FmxCell%3E%3C%2Froot%3E%3C%2FmxGraphModel%3E&lt;/span&gt;&lt;span style=&quot;color: rgba(0, 0, 0, 0); font-family: monospace; font-size: 0px; text-align: start;&quot;&gt;%3CmxGraphModel%3E%3Croot%3E%3CmxCell%20id%3D%220%22%2F%3E%3CmxCell%20id%3D%221%22%20parent%3D%220%22%2F%3E%3CmxCell%20id%3D%222%22%20value%3D%22%E5%AF%86%E5%88%87%E6%8E%A5%E8%A7%A6%E8%80%85%E7%AE%A1%E7%90%86%22%20style%3D%22rounded%3D0%3BwhiteSpace%3Dwrap%3Bhtml%3D1%3BfontSize%3D18%3B%22%20vertex%3D%221%22%20parent%3D%221%22%3E%3CmxGeometry%20x%3D%221100%22%20y%3D%221698%22%20width%3D%2250%22%20height%3D%22250%22%20as%3D%22geometry%22%2F%3E%3C%2FmxCell%3E%3C%2Froot%3E%3C%2FmxGraphModel%3E&lt;/span&gt;" style="rounded=0;whiteSpace=wrap;html=1;fontSize=18;" vertex="1" parent="1">
          <mxGeometry x="1000" y="2000" width="50" height="250" as="geometry" />
        </mxCell>
        <mxCell id="J2fYGo72itP9ht46wXRY-186" value="查看密切接触者&lt;span style=&quot;color: rgba(0, 0, 0, 0); font-family: monospace; font-size: 0px; text-align: start;&quot;&gt;%3CmxGraphModel%3E%3Croot%3E%3CmxCell%20id%3D%220%22%2F%3E%3CmxCell%20id%3D%221%22%20parent%3D%220%22%2F%3E%3CmxCell%20id%3D%222%22%20value%3D%22%E5%AF%86%E5%88%87%E6%8E%A5%E8%A7%A6%E8%80%85%E7%AE%A1%E7%90%86%22%20style%3D%22rounded%3D0%3BwhiteSpace%3Dwrap%3Bhtml%3D1%3BfontSize%3D18%3B%22%20vertex%3D%221%22%20parent%3D%221%22%3E%3CmxGeometry%20x%3D%221100%22%20y%3D%221698%22%20width%3D%2250%22%20height%3D%22250%22%20as%3D%22geometry%22%2F%3E%3C%2FmxCell%3E%3C%2Froot%3E%3C%2FmxGraphModel%3E&lt;/span&gt;&lt;span style=&quot;color: rgba(0, 0, 0, 0); font-family: monospace; font-size: 0px; text-align: start;&quot;&gt;%3CmxGraphModel%3E%3Croot%3E%3CmxCell%20id%3D%220%22%2F%3E%3CmxCell%20id%3D%221%22%20parent%3D%220%22%2F%3E%3CmxCell%20id%3D%222%22%20value%3D%22%E5%AF%86%E5%88%87%E6%8E%A5%E8%A7%A6%E8%80%85%E7%AE%A1%E7%90%86%22%20style%3D%22rounded%3D0%3BwhiteSpace%3Dwrap%3Bhtml%3D1%3BfontSize%3D18%3B%22%20vertex%3D%221%22%20parent%3D%221%22%3E%3CmxGeometry%20x%3D%221100%22%20y%3D%221698%22%20width%3D%2250%22%20height%3D%22250%22%20as%3D%22geometry%22%2F%3E%3C%2FmxCell%3E%3C%2Froot%3E%3C%2FmxGraphModel%&lt;/span&gt;" style="rounded=0;whiteSpace=wrap;html=1;fontSize=18;" vertex="1" parent="1">
          <mxGeometry x="1070" y="2000" width="50" height="250" as="geometry" />
        </mxCell>
        <mxCell id="J2fYGo72itP9ht46wXRY-187" value="添加确诊者" style="rounded=0;whiteSpace=wrap;html=1;fontSize=18;" vertex="1" parent="1">
          <mxGeometry x="1155" y="2000" width="50" height="250" as="geometry" />
        </mxCell>
        <mxCell id="J2fYGo72itP9ht46wXRY-188" value="确诊患者核酸检测结果&lt;span style=&quot;color: rgba(0, 0, 0, 0); font-family: monospace; font-size: 0px; text-align: start;&quot;&gt;%3CmxGraphModel%3E%3Croot%3E%3CmxCell%20id%3D%220%22%2F%3E%3CmxCell%20id%3D%221%22%20parent%3D%220%22%2F%3E%3CmxCell%20id%3D%222%22%20value%3D%22%E5%AF%86%E5%88%87%E6%8E%A5%E8%A7%A6%E8%80%85%E7%AE%A1%E7%90%86%22%20style%3D%22rounded%3D0%3BwhiteSpace%3Dwrap%3Bhtml%3D1%3BfontSize%3D18%3B%22%20vertex%3D%221%22%20parent%3D%221%22%3E%3CmxGeometry%20x%3D%221100%22%20y%3D%221698%22%20width%3D%2250%22%20height%3D%22250%22%20as%3D%22geometry%22%2F%3E%3C%2FmxCell%3E%3C%2Froot%3E%3C%2FmxGraphModel%3E&lt;/span&gt;&lt;span style=&quot;color: rgba(0, 0, 0, 0); font-family: monospace; font-size: 0px; text-align: start;&quot;&gt;%3CmxGraphModel%3E%3Croot%3E%3CmxCell%20id%3D%220%22%2F%3E%3CmxCell%20id%3D%221%22%20parent%3D%220%22%2F%3E%3CmxCell%20id%3D%222%22%20value%3D%22%E5%AF%86%E5%88%87%E6%8E%A5%E8%A7%A6%E8%80%85%E7%AE%A1%E7%90%86%22%20style%3D%22rounded%3D0%3BwhiteSpace%3Dwrap%3Bhtml%3D1%3BfontSize%3D18%3B%22%20vertex%3D%221%22%20parent%3D%221%22%3E%3CmxGeometry%20x%3D%221100%22%20y%3D%221698%22%20width%3D%2250%22%20height%3D%22250%22%20as%3D%22geometry%22%2F%3E%3C%2FmxCell%3E%3C%2Froot%3E%3C%2FmxGraphModel%3E&lt;/span&gt;" style="rounded=0;whiteSpace=wrap;html=1;fontSize=18;" vertex="1" parent="1">
          <mxGeometry x="1229" y="2000" width="50" height="250" as="geometry" />
        </mxCell>
        <mxCell id="J2fYGo72itP9ht46wXRY-189" value="查看确诊患者" style="rounded=0;whiteSpace=wrap;html=1;fontSize=18;" vertex="1" parent="1">
          <mxGeometry x="1304" y="2000" width="50" height="250" as="geometry" />
        </mxCell>
        <mxCell id="J2fYGo72itP9ht46wXRY-191" value="确诊患者结束隔离" style="rounded=0;whiteSpace=wrap;html=1;fontSize=18;" vertex="1" parent="1">
          <mxGeometry x="1370.5" y="2000" width="50" height="250" as="geometry" />
        </mxCell>
        <mxCell id="J2fYGo72itP9ht46wXRY-192" value="查看治愈患者" style="rounded=0;whiteSpace=wrap;html=1;fontSize=18;" vertex="1" parent="1">
          <mxGeometry x="1450.5" y="2000" width="50" height="250" as="geometry" />
        </mxCell>
        <mxCell id="J2fYGo72itP9ht46wXRY-203" style="edgeStyle=orthogonalEdgeStyle;rounded=0;orthogonalLoop=1;jettySize=auto;html=1;exitX=0.5;exitY=1;exitDx=0;exitDy=0;entryX=0.5;entryY=0;entryDx=0;entryDy=0;fontSize=18;" edge="1" parent="1" source="J2fYGo72itP9ht46wXRY-205" target="J2fYGo72itP9ht46wXRY-207">
          <mxGeometry relative="1" as="geometry" />
        </mxCell>
        <mxCell id="J2fYGo72itP9ht46wXRY-205" value="系统人员管理模块" style="rounded=0;whiteSpace=wrap;html=1;fontSize=18;" vertex="1" parent="1">
          <mxGeometry x="679" y="1090" width="232" height="50" as="geometry" />
        </mxCell>
        <mxCell id="J2fYGo72itP9ht46wXRY-210" value="" style="edgeStyle=orthogonalEdgeStyle;rounded=0;orthogonalLoop=1;jettySize=auto;html=1;fontSize=18;" edge="1" parent="1" source="J2fYGo72itP9ht46wXRY-207" target="J2fYGo72itP9ht46wXRY-209">
          <mxGeometry relative="1" as="geometry" />
        </mxCell>
        <mxCell id="J2fYGo72itP9ht46wXRY-211" value="" style="edgeStyle=orthogonalEdgeStyle;rounded=0;orthogonalLoop=1;jettySize=auto;html=1;fontSize=18;" edge="1" parent="1" source="J2fYGo72itP9ht46wXRY-207" target="J2fYGo72itP9ht46wXRY-209">
          <mxGeometry relative="1" as="geometry" />
        </mxCell>
        <mxCell id="J2fYGo72itP9ht46wXRY-214" style="edgeStyle=orthogonalEdgeStyle;rounded=0;orthogonalLoop=1;jettySize=auto;html=1;exitX=0.5;exitY=1;exitDx=0;exitDy=0;entryX=0.5;entryY=0;entryDx=0;entryDy=0;fontSize=18;" edge="1" parent="1" source="J2fYGo72itP9ht46wXRY-207" target="J2fYGo72itP9ht46wXRY-212">
          <mxGeometry relative="1" as="geometry" />
        </mxCell>
        <mxCell id="J2fYGo72itP9ht46wXRY-215" style="edgeStyle=orthogonalEdgeStyle;rounded=0;orthogonalLoop=1;jettySize=auto;html=1;exitX=0.5;exitY=1;exitDx=0;exitDy=0;entryX=0.5;entryY=0;entryDx=0;entryDy=0;fontSize=18;" edge="1" parent="1" source="J2fYGo72itP9ht46wXRY-207" target="J2fYGo72itP9ht46wXRY-213">
          <mxGeometry relative="1" as="geometry" />
        </mxCell>
        <mxCell id="J2fYGo72itP9ht46wXRY-207" value="用户管理" style="rounded=0;whiteSpace=wrap;html=1;fontSize=18;" vertex="1" parent="1">
          <mxGeometry x="770" y="1190" width="50" height="120" as="geometry" />
        </mxCell>
        <mxCell id="J2fYGo72itP9ht46wXRY-209" value="添加新用户" style="rounded=0;whiteSpace=wrap;html=1;fontSize=18;" vertex="1" parent="1">
          <mxGeometry x="770" y="1390" width="50" height="120" as="geometry" />
        </mxCell>
        <mxCell id="J2fYGo72itP9ht46wXRY-212" value="修改用户权限" style="rounded=0;whiteSpace=wrap;html=1;fontSize=18;" vertex="1" parent="1">
          <mxGeometry x="679" y="1390" width="50" height="120" as="geometry" />
        </mxCell>
        <mxCell id="J2fYGo72itP9ht46wXRY-213" value="修改用户信息" style="rounded=0;whiteSpace=wrap;html=1;fontSize=18;" vertex="1" parent="1">
          <mxGeometry x="861" y="1390" width="50" height="120" as="geometry" />
        </mxCell>
        <mxCell id="J2fYGo72itP9ht46wXRY-216" value="疫情人员管理流程" style="swimlane;childLayout=stackLayout;resizeParent=1;resizeParentMax=0;startSize=20;html=1;fontSize=18;" vertex="1" parent="1">
          <mxGeometry x="80" y="1380" width="360" height="570" as="geometry" />
        </mxCell>
        <mxCell id="J2fYGo72itP9ht46wXRY-217" value="辅导员" style="swimlane;startSize=20;html=1;fontSize=18;" vertex="1" parent="J2fYGo72itP9ht46wXRY-216">
          <mxGeometry y="20" width="120" height="550" as="geometry" />
        </mxCell>
        <mxCell id="J2fYGo72itP9ht46wXRY-223" value="&lt;font style=&quot;font-size: 14px;&quot;&gt;添加学生&lt;/font&gt;" style="strokeWidth=2;html=1;shape=mxgraph.flowchart.terminator;whiteSpace=wrap;fontSize=18;" vertex="1" parent="J2fYGo72itP9ht46wXRY-217">
          <mxGeometry x="20" y="118" width="70" height="40" as="geometry" />
        </mxCell>
        <mxCell id="J2fYGo72itP9ht46wXRY-224" value="" style="ellipse;html=1;shape=startState;fillColor=#000000;strokeColor=#ff0000;fontSize=14;" vertex="1" parent="J2fYGo72itP9ht46wXRY-217">
          <mxGeometry x="40" y="28" width="30" height="30" as="geometry" />
        </mxCell>
        <mxCell id="J2fYGo72itP9ht46wXRY-225" value="" style="edgeStyle=orthogonalEdgeStyle;html=1;verticalAlign=bottom;endArrow=open;endSize=8;strokeColor=#ff0000;rounded=0;fontSize=14;" edge="1" source="J2fYGo72itP9ht46wXRY-224" parent="J2fYGo72itP9ht46wXRY-217">
          <mxGeometry relative="1" as="geometry">
            <mxPoint x="55" y="118" as="targetPoint" />
          </mxGeometry>
        </mxCell>
        <mxCell id="J2fYGo72itP9ht46wXRY-226" value="" style="endArrow=classic;html=1;rounded=0;fontSize=14;exitX=0.5;exitY=1;exitDx=0;exitDy=0;exitPerimeter=0;" edge="1" parent="J2fYGo72itP9ht46wXRY-217" source="J2fYGo72itP9ht46wXRY-223">
          <mxGeometry width="50" height="50" relative="1" as="geometry">
            <mxPoint x="30" y="180" as="sourcePoint" />
            <mxPoint x="55" y="210" as="targetPoint" />
          </mxGeometry>
        </mxCell>
        <mxCell id="J2fYGo72itP9ht46wXRY-227" value="&lt;span style=&quot;font-size: 14px;&quot;&gt;隔离/确诊&lt;/span&gt;" style="strokeWidth=2;html=1;shape=mxgraph.flowchart.terminator;whiteSpace=wrap;fontSize=18;" vertex="1" parent="J2fYGo72itP9ht46wXRY-217">
          <mxGeometry x="20" y="210" width="70" height="40" as="geometry" />
        </mxCell>
        <mxCell id="J2fYGo72itP9ht46wXRY-239" value="继续隔离" style="text;html=1;strokeColor=none;fillColor=none;align=center;verticalAlign=middle;whiteSpace=wrap;rounded=0;fontSize=14;" vertex="1" parent="J2fYGo72itP9ht46wXRY-217">
          <mxGeometry x="60" y="280" width="60" height="30" as="geometry" />
        </mxCell>
        <mxCell id="J2fYGo72itP9ht46wXRY-218" value="辅导员" style="swimlane;startSize=20;html=1;fontSize=18;" vertex="1" parent="J2fYGo72itP9ht46wXRY-216">
          <mxGeometry x="120" y="20" width="120" height="550" as="geometry" />
        </mxCell>
        <mxCell id="J2fYGo72itP9ht46wXRY-235" style="edgeStyle=orthogonalEdgeStyle;rounded=0;orthogonalLoop=1;jettySize=auto;html=1;exitX=0.5;exitY=1;exitDx=0;exitDy=0;exitPerimeter=0;entryX=0.5;entryY=0;entryDx=0;entryDy=0;entryPerimeter=0;fontSize=14;" edge="1" parent="J2fYGo72itP9ht46wXRY-218" source="J2fYGo72itP9ht46wXRY-228" target="J2fYGo72itP9ht46wXRY-234">
          <mxGeometry relative="1" as="geometry" />
        </mxCell>
        <mxCell id="J2fYGo72itP9ht46wXRY-228" value="&lt;span style=&quot;font-size: 14px;&quot;&gt;核酸结果&lt;/span&gt;" style="strokeWidth=2;html=1;shape=mxgraph.flowchart.terminator;whiteSpace=wrap;fontSize=18;" vertex="1" parent="J2fYGo72itP9ht46wXRY-218">
          <mxGeometry x="20" y="210" width="70" height="40" as="geometry" />
        </mxCell>
        <mxCell id="J2fYGo72itP9ht46wXRY-234" value="&lt;span style=&quot;font-size: 14px;&quot;&gt;阳性&lt;/span&gt;" style="strokeWidth=2;html=1;shape=mxgraph.flowchart.terminator;whiteSpace=wrap;fontSize=18;" vertex="1" parent="J2fYGo72itP9ht46wXRY-218">
          <mxGeometry x="20" y="290" width="70" height="40" as="geometry" />
        </mxCell>
        <mxCell id="J2fYGo72itP9ht46wXRY-219" value="辅导员" style="swimlane;startSize=20;html=1;fontSize=18;" vertex="1" parent="J2fYGo72itP9ht46wXRY-216">
          <mxGeometry x="240" y="20" width="120" height="550" as="geometry" />
        </mxCell>
        <mxCell id="J2fYGo72itP9ht46wXRY-243" style="edgeStyle=orthogonalEdgeStyle;rounded=0;orthogonalLoop=1;jettySize=auto;html=1;fontSize=14;" edge="1" parent="J2fYGo72itP9ht46wXRY-219" source="J2fYGo72itP9ht46wXRY-240" target="J2fYGo72itP9ht46wXRY-242">
          <mxGeometry relative="1" as="geometry" />
        </mxCell>
        <mxCell id="J2fYGo72itP9ht46wXRY-240" value="&lt;span style=&quot;font-size: 14px;&quot;&gt;阴性&lt;/span&gt;" style="strokeWidth=2;html=1;shape=mxgraph.flowchart.terminator;whiteSpace=wrap;fontSize=18;" vertex="1" parent="J2fYGo72itP9ht46wXRY-219">
          <mxGeometry x="24" y="210" width="70" height="40" as="geometry" />
        </mxCell>
        <mxCell id="J2fYGo72itP9ht46wXRY-247" style="edgeStyle=orthogonalEdgeStyle;rounded=0;orthogonalLoop=1;jettySize=auto;html=1;exitX=0.5;exitY=1;exitDx=0;exitDy=0;exitPerimeter=0;entryX=0.5;entryY=0;entryDx=0;entryDy=0;fontSize=14;" edge="1" parent="J2fYGo72itP9ht46wXRY-219" source="J2fYGo72itP9ht46wXRY-242" target="J2fYGo72itP9ht46wXRY-244">
          <mxGeometry relative="1" as="geometry" />
        </mxCell>
        <mxCell id="J2fYGo72itP9ht46wXRY-242" value="&lt;span style=&quot;font-size: 14px;&quot;&gt;移除隔离&lt;/span&gt;" style="strokeWidth=2;html=1;shape=mxgraph.flowchart.terminator;whiteSpace=wrap;fontSize=18;" vertex="1" parent="J2fYGo72itP9ht46wXRY-219">
          <mxGeometry x="24" y="334" width="70" height="40" as="geometry" />
        </mxCell>
        <mxCell id="J2fYGo72itP9ht46wXRY-244" value="" style="ellipse;html=1;shape=endState;fillColor=#000000;strokeColor=#ff0000;fontSize=14;" vertex="1" parent="J2fYGo72itP9ht46wXRY-219">
          <mxGeometry x="44" y="420" width="30" height="30" as="geometry" />
        </mxCell>
        <mxCell id="J2fYGo72itP9ht46wXRY-229" style="edgeStyle=orthogonalEdgeStyle;rounded=0;orthogonalLoop=1;jettySize=auto;html=1;exitX=1;exitY=0.5;exitDx=0;exitDy=0;exitPerimeter=0;entryX=0;entryY=0.5;entryDx=0;entryDy=0;entryPerimeter=0;fontSize=14;" edge="1" parent="J2fYGo72itP9ht46wXRY-216" source="J2fYGo72itP9ht46wXRY-227" target="J2fYGo72itP9ht46wXRY-228">
          <mxGeometry relative="1" as="geometry" />
        </mxCell>
        <mxCell id="J2fYGo72itP9ht46wXRY-238" style="edgeStyle=orthogonalEdgeStyle;rounded=0;orthogonalLoop=1;jettySize=auto;html=1;exitX=0;exitY=0.5;exitDx=0;exitDy=0;exitPerimeter=0;entryX=0.5;entryY=1;entryDx=0;entryDy=0;entryPerimeter=0;fontSize=14;" edge="1" parent="J2fYGo72itP9ht46wXRY-216" source="J2fYGo72itP9ht46wXRY-234" target="J2fYGo72itP9ht46wXRY-227">
          <mxGeometry relative="1" as="geometry" />
        </mxCell>
        <mxCell id="J2fYGo72itP9ht46wXRY-241" style="edgeStyle=orthogonalEdgeStyle;rounded=0;orthogonalLoop=1;jettySize=auto;html=1;exitX=1;exitY=0.5;exitDx=0;exitDy=0;exitPerimeter=0;fontSize=14;" edge="1" parent="J2fYGo72itP9ht46wXRY-216" source="J2fYGo72itP9ht46wXRY-228" target="J2fYGo72itP9ht46wXRY-240">
          <mxGeometry relative="1" as="geometry" />
        </mxCell>
        <mxCell id="J2fYGo72itP9ht46wXRY-248" value="健康上报流程图" style="swimlane;childLayout=stackLayout;resizeParent=1;resizeParentMax=0;startSize=20;horizontal=0;horizontalStack=1;fontSize=14;" vertex="1" parent="1">
          <mxGeometry x="80" y="2020" width="380" height="480" as="geometry" />
        </mxCell>
        <mxCell id="J2fYGo72itP9ht46wXRY-249" value="学生" style="swimlane;startSize=20;fontSize=14;" vertex="1" parent="J2fYGo72itP9ht46wXRY-248">
          <mxGeometry x="20" width="120" height="480" as="geometry" />
        </mxCell>
        <mxCell id="J2fYGo72itP9ht46wXRY-253" value="" style="ellipse;html=1;shape=startState;fillColor=#000000;strokeColor=#ff0000;fontSize=14;" vertex="1" parent="J2fYGo72itP9ht46wXRY-249">
          <mxGeometry x="45" y="40" width="30" height="30" as="geometry" />
        </mxCell>
        <mxCell id="J2fYGo72itP9ht46wXRY-254" value="" style="edgeStyle=orthogonalEdgeStyle;html=1;verticalAlign=bottom;endArrow=open;endSize=8;strokeColor=#ff0000;rounded=0;fontSize=14;" edge="1" source="J2fYGo72itP9ht46wXRY-253" parent="J2fYGo72itP9ht46wXRY-249">
          <mxGeometry relative="1" as="geometry">
            <mxPoint x="60" y="130" as="targetPoint" />
          </mxGeometry>
        </mxCell>
        <mxCell id="J2fYGo72itP9ht46wXRY-257" style="edgeStyle=orthogonalEdgeStyle;rounded=0;orthogonalLoop=1;jettySize=auto;html=1;fontSize=14;" edge="1" parent="J2fYGo72itP9ht46wXRY-249" source="J2fYGo72itP9ht46wXRY-255" target="J2fYGo72itP9ht46wXRY-256">
          <mxGeometry relative="1" as="geometry" />
        </mxCell>
        <mxCell id="J2fYGo72itP9ht46wXRY-255" value="&lt;font style=&quot;font-size: 14px;&quot;&gt;填写信息&lt;/font&gt;" style="strokeWidth=2;html=1;shape=mxgraph.flowchart.terminator;whiteSpace=wrap;fontSize=18;" vertex="1" parent="J2fYGo72itP9ht46wXRY-249">
          <mxGeometry x="25" y="140" width="70" height="40" as="geometry" />
        </mxCell>
        <mxCell id="J2fYGo72itP9ht46wXRY-256" value="&lt;font style=&quot;font-size: 14px;&quot;&gt;提交&lt;/font&gt;" style="strokeWidth=2;html=1;shape=mxgraph.flowchart.terminator;whiteSpace=wrap;fontSize=18;" vertex="1" parent="J2fYGo72itP9ht46wXRY-249">
          <mxGeometry x="25" y="230" width="70" height="40" as="geometry" />
        </mxCell>
        <mxCell id="J2fYGo72itP9ht46wXRY-250" value="辅导员" style="swimlane;startSize=20;fontSize=14;" vertex="1" parent="J2fYGo72itP9ht46wXRY-248">
          <mxGeometry x="140" width="120" height="480" as="geometry" />
        </mxCell>
        <mxCell id="J2fYGo72itP9ht46wXRY-258" value="&lt;font style=&quot;font-size: 14px;&quot;&gt;上报列表查看&lt;/font&gt;" style="strokeWidth=2;html=1;shape=mxgraph.flowchart.terminator;whiteSpace=wrap;fontSize=18;" vertex="1" parent="J2fYGo72itP9ht46wXRY-250">
          <mxGeometry x="25" y="230" width="70" height="40" as="geometry" />
        </mxCell>
        <mxCell id="J2fYGo72itP9ht46wXRY-251" value="辅导员" style="swimlane;startSize=20;fontSize=14;" vertex="1" parent="J2fYGo72itP9ht46wXRY-248">
          <mxGeometry x="260" width="120" height="480" as="geometry" />
        </mxCell>
        <mxCell id="J2fYGo72itP9ht46wXRY-263" style="edgeStyle=orthogonalEdgeStyle;rounded=0;orthogonalLoop=1;jettySize=auto;html=1;exitX=0.5;exitY=1;exitDx=0;exitDy=0;exitPerimeter=0;entryX=0.5;entryY=0;entryDx=0;entryDy=0;fontSize=14;" edge="1" parent="J2fYGo72itP9ht46wXRY-251" source="J2fYGo72itP9ht46wXRY-260" target="J2fYGo72itP9ht46wXRY-262">
          <mxGeometry relative="1" as="geometry" />
        </mxCell>
        <mxCell id="J2fYGo72itP9ht46wXRY-260" value="&lt;font style=&quot;font-size: 14px;&quot;&gt;信息统计&lt;/font&gt;" style="strokeWidth=2;html=1;shape=mxgraph.flowchart.terminator;whiteSpace=wrap;fontSize=18;" vertex="1" parent="J2fYGo72itP9ht46wXRY-251">
          <mxGeometry x="25" y="230" width="70" height="40" as="geometry" />
        </mxCell>
        <mxCell id="J2fYGo72itP9ht46wXRY-262" value="" style="ellipse;html=1;shape=endState;fillColor=#000000;strokeColor=#ff0000;fontSize=14;" vertex="1" parent="J2fYGo72itP9ht46wXRY-251">
          <mxGeometry x="45" y="310" width="30" height="30" as="geometry" />
        </mxCell>
        <mxCell id="J2fYGo72itP9ht46wXRY-259" style="edgeStyle=orthogonalEdgeStyle;rounded=0;orthogonalLoop=1;jettySize=auto;html=1;exitX=1;exitY=0.5;exitDx=0;exitDy=0;exitPerimeter=0;fontSize=14;" edge="1" parent="J2fYGo72itP9ht46wXRY-248" source="J2fYGo72itP9ht46wXRY-256" target="J2fYGo72itP9ht46wXRY-258">
          <mxGeometry relative="1" as="geometry" />
        </mxCell>
        <mxCell id="J2fYGo72itP9ht46wXRY-261" style="edgeStyle=orthogonalEdgeStyle;rounded=0;orthogonalLoop=1;jettySize=auto;html=1;exitX=1;exitY=0.5;exitDx=0;exitDy=0;exitPerimeter=0;fontSize=14;" edge="1" parent="J2fYGo72itP9ht46wXRY-248" source="J2fYGo72itP9ht46wXRY-258" target="J2fYGo72itP9ht46wXRY-260">
          <mxGeometry relative="1" as="geometry" />
        </mxCell>
      </root>
    </mxGraphModel>
  </diagram>
</mxfile>
